<svg width="100.000000" height="100.000000" viewBox="0 0 100 100" fill="none" xmlns="http://www.w3.org/2000/svg" xmlns:xlink="http://www.w3.org/1999/xlink">
	<desc>
			Created with Pixso.
	</desc>
	<defs/>
	<path id="Vector" d="M13.72 38.72C12.5 39.94 12.5 41.9 12.5 45.83L12.5 70.83C12.5 74.76 12.5 76.72 13.72 77.94C14.94 79.16 16.9 79.16 20.83 79.16C24.76 79.16 26.72 79.16 27.94 77.94C29.16 76.72 29.16 74.76 29.16 70.83L29.16 45.83C29.16 41.9 29.16 39.94 27.94 38.72C26.72 37.5 24.76 37.5 20.83 37.5C16.9 37.5 14.94 37.5 13.72 38.72Z" fill="#000000" fill-opacity="0.700000" fill-rule="nonzero"/>
	<g opacity="0.400000">
		<path id="Vector" d="M72.05 9.55C70.83 10.77 70.83 12.73 70.83 16.66L70.83 70.83C70.83 74.76 70.83 76.72 72.05 77.94C73.27 79.16 75.23 79.16 79.16 79.16C83.09 79.16 85.05 79.16 86.27 77.94C87.5 76.72 87.5 74.76 87.5 70.83L87.5 16.66C87.5 12.73 87.5 10.77 86.27 9.55C85.05 8.33 83.09 8.33 79.16 8.33C75.23 8.33 73.27 8.33 72.05 9.55Z" fill="#000000" fill-opacity="0.700000" fill-rule="nonzero"/>
	</g>
	<g opacity="0.700000">
		<path id="Vector" d="M41.66 29.16C41.66 25.23 41.66 23.27 42.88 22.05C44.1 20.83 46.07 20.83 50 20.83C53.92 20.83 55.89 20.83 57.11 22.05C58.33 23.27 58.33 25.23 58.33 29.16L58.33 70.83C58.33 74.76 58.33 76.72 57.11 77.94C55.89 79.16 53.92 79.16 50 79.16C46.07 79.16 44.1 79.16 42.88 77.94C41.66 76.72 41.66 74.76 41.66 70.83L41.66 29.16Z" fill="#000000" fill-opacity="0.700000" fill-rule="nonzero"/>
	</g>
	<path id="Vector" d="M12.5 88.54C11.67 88.54 10.87 88.87 10.29 89.45C9.7 90.04 9.37 90.83 9.37 91.66C9.37 92.49 9.7 93.29 10.29 93.87C10.87 94.46 11.67 94.79 12.5 94.79L87.5 94.79C88.32 94.79 89.12 94.46 89.71 93.87C90.29 93.29 90.62 92.49 90.62 91.66C90.62 90.83 90.29 90.04 89.71 89.45C89.12 88.87 88.32 88.54 87.5 88.54L12.5 88.54Z" fill="#000000" fill-opacity="0.700000" fill-rule="nonzero"/>
</svg>
