<svg width="100.000000" height="100.000000" viewBox="0 0 100 100" fill="none" xmlns="http://www.w3.org/2000/svg" xmlns:xlink="http://www.w3.org/1999/xlink">
	<desc>
			Created with Pixso.
	</desc>
	<defs/>
	<rect id="ACTIVES" rx="0.000000" width="99.000000" height="99.000000" transform="translate(0.500000 0.500000)" fill="#FFFFFF" fill-opacity="0"/>
	<path id="Vector" d="M68.86 8.33L31.13 8.33C26.12 8.33 23.61 8.33 21.6 9.57C19.58 10.82 18.46 13.06 16.22 17.54L10.37 32.33C9.02 35.75 7.84 39.77 10.12 42.66C11.19 44.02 12.66 45.01 14.32 45.5C15.98 45.98 17.76 45.94 19.39 45.37C21.03 44.8 22.45 43.74 23.45 42.33C24.46 40.92 25 39.23 25 37.5C25 39.71 25.87 41.82 27.44 43.39C29 44.95 31.12 45.83 33.33 45.83C35.54 45.83 37.66 44.95 39.22 43.39C40.78 41.82 41.66 39.71 41.66 37.5C41.66 39.71 42.54 41.82 44.1 43.39C45.67 44.95 47.78 45.83 50 45.83C52.21 45.83 54.32 44.95 55.89 43.39C57.45 41.82 58.33 39.71 58.33 37.5C58.33 39.71 59.21 41.82 60.77 43.39C62.33 44.95 64.45 45.83 66.66 45.83C68.87 45.83 70.99 44.95 72.55 43.39C74.12 41.82 75 39.71 75 37.5C74.99 39.23 75.53 40.92 76.54 42.33C77.54 43.74 78.96 44.8 80.6 45.37C82.24 45.94 84.01 45.98 85.67 45.49C87.33 45.01 88.8 44.01 89.87 42.65C92.15 39.77 90.97 35.74 89.62 32.32L83.77 17.54C81.52 13.06 80.41 10.82 78.39 9.57C76.38 8.33 73.87 8.33 68.86 8.33ZM39.58 88.54L39.58 77.08C39.58 73.18 39.58 71.24 40.42 69.79C40.96 68.84 41.75 68.05 42.7 67.5C44.15 66.66 46.1 66.66 50 66.66C53.89 66.66 55.84 66.66 57.29 67.5C58.24 68.05 59.03 68.84 59.57 69.79C60.41 71.24 60.41 73.18 60.41 77.08L60.41 88.54L39.58 88.54Z" fill="#000000" fill-opacity="0.700000" fill-rule="nonzero"/>
	<g opacity="0.500000">
		<path id="Vector" d="M16.66 45.83C18.87 45.83 20.99 44.95 22.55 43.39C24.12 41.83 25 39.71 25 37.5C25 39.71 25.87 41.83 27.44 43.39C29 44.95 31.12 45.83 33.33 45.83C35.54 45.83 37.66 44.95 39.22 43.39C40.78 41.83 41.66 39.71 41.66 37.5C41.66 39.71 42.54 41.83 44.1 43.39C45.67 44.95 47.78 45.83 50 45.83C52.21 45.83 54.32 44.95 55.89 43.39C57.45 41.83 58.33 39.71 58.33 37.5C58.33 39.71 59.21 41.83 60.77 43.39C62.33 44.95 64.45 45.83 66.66 45.83C68.87 45.83 70.99 44.95 72.55 43.39C74.12 41.83 75 39.71 75 37.5C75 39.71 75.87 41.83 77.44 43.39C79 44.95 81.12 45.83 83.33 45.83L83.33 88.54L60.41 88.54L60.41 77.08C60.41 73.18 60.41 71.24 59.57 69.79C59.03 68.84 58.24 68.05 57.29 67.5C55.84 66.66 53.89 66.66 50 66.66C46.1 66.66 44.15 66.66 42.7 67.5C41.75 68.05 40.96 68.84 40.42 69.79C39.58 71.24 39.58 73.18 39.58 77.08L39.58 88.54L16.66 88.54L16.66 45.83Z" fill="#000000" fill-opacity="0.700000" fill-rule="evenodd"/>
	</g>
	<path id="Vector" d="M60.41 88.54L8.33 88.54C7.5 88.54 6.7 88.87 6.12 89.45C5.53 90.04 5.2 90.83 5.2 91.66C5.2 92.49 5.53 93.29 6.12 93.87C6.7 94.46 7.5 94.79 8.33 94.79L91.66 94.79C92.49 94.79 93.29 94.46 93.87 93.87C94.46 93.29 94.79 92.49 94.79 91.66C94.79 90.83 94.46 90.04 93.87 89.45C93.29 88.87 92.49 88.54 91.66 88.54L60.41 88.54Z" fill="#000000" fill-opacity="0.700000" fill-rule="nonzero"/>
</svg>
