<svg width="100.000000" height="100.000000" viewBox="0 0 100 100" fill="none" xmlns="http://www.w3.org/2000/svg" xmlns:xlink="http://www.w3.org/1999/xlink">
	<desc>
			Created with Pixso.
	</desc>
	<defs/>
	<rect id="entypo:cycle" rx="0.000000" width="99.000000" height="99.000000" transform="translate(0.500000 0.500000)" fill="#FFFFFF" fill-opacity="0"/>
	<path id="Vector" d="M27.58 71.12C16.27 58.96 16.47 39.9 28.22 28.06C32.82 23.4 38.81 20.36 45.29 19.38L44.94 9C35.85 10.09 27.39 14.23 20.96 20.75C5.21 36.6 5.02 62.2 20.34 78.41L11.64 87.16L39.19 88.67L39.11 59.5L27.58 71.12ZM60.81 11.32L60.89 40.49L72.42 28.88C83.73 41.05 83.53 60.11 71.78 71.94C67.18 76.59 61.19 79.64 54.71 80.62L55.06 91C64.15 89.9 72.6 85.76 79.05 79.25C94.79 63.38 94.98 37.79 79.66 21.59L88.36 12.82L60.81 11.32Z" fill="#000000" fill-opacity="0.700000" fill-rule="nonzero"/>
</svg>
