<svg width="100.000000" height="100.000000" viewBox="0 0 100 100" fill="none" xmlns="http://www.w3.org/2000/svg" xmlns:xlink="http://www.w3.org/1999/xlink">
	<desc>
			Created with Pixso.
	</desc>
	<defs/>
	<rect id="pepicons-print:people" rx="0.000000" width="99.000000" height="99.000000" transform="translate(0.500000 0.500000)" fill="#FFFFFF" fill-opacity="0"/>
	<g opacity="0.200000">
		<path id="Vector" d="M48.75 38.75C48.75 42.72 47.16 46.54 44.35 49.35C41.54 52.16 37.72 53.75 33.75 53.75C29.77 53.75 25.95 52.16 23.14 49.35C20.33 46.54 18.75 42.72 18.75 38.75C18.75 34.77 20.33 30.95 23.14 28.14C25.95 25.33 29.77 23.75 33.75 23.75C37.72 23.75 41.54 25.33 44.35 28.14C47.16 30.95 48.75 34.77 48.75 38.75Z" fill="#000000" fill-opacity="0.700000" fill-rule="nonzero"/>
		<path id="Vector" d="M33.75 43.75C35.07 43.75 36.34 43.22 37.28 42.28C38.22 41.34 38.75 40.07 38.75 38.75C38.75 37.42 38.22 36.15 37.28 35.21C36.34 34.27 35.07 33.75 33.75 33.75C32.42 33.75 31.15 34.27 30.21 35.21C29.27 36.15 28.75 37.42 28.75 38.75C28.75 40.07 29.27 41.34 30.21 42.28C31.15 43.22 32.42 43.75 33.75 43.75ZM33.75 53.75C35.71 53.75 37.67 53.36 39.49 52.6C41.31 51.85 42.96 50.74 44.35 49.35C45.74 47.96 46.85 46.31 47.6 44.49C48.36 42.66 48.75 40.71 48.75 38.75C48.75 36.78 48.36 34.83 47.6 33C46.85 31.18 45.74 29.53 44.35 28.14C42.96 26.75 41.31 25.64 39.49 24.89C37.67 24.13 35.71 23.75 33.75 23.75C29.77 23.75 25.95 25.33 23.14 28.14C20.33 30.95 18.75 34.77 18.75 38.75C18.75 42.72 20.33 46.54 23.14 49.35C25.95 52.16 29.77 53.75 33.75 53.75Z" fill="#000000" fill-opacity="0.700000" fill-rule="evenodd"/>
		<path id="Vector" d="M34 57.5C32.01 57.5 30.1 58.29 28.69 59.69C27.29 61.1 26.5 63.01 26.5 65L26.5 72.5C26.5 73.82 25.97 75.09 25.03 76.03C24.09 76.97 22.82 77.5 21.5 77.5C20.17 77.5 18.9 76.97 17.96 76.03C17.02 75.09 16.5 73.82 16.5 72.5L16.5 65C16.5 60.35 18.34 55.9 21.62 52.62C24.9 49.34 29.35 47.5 34 47.5C38.64 47.5 43.09 49.34 46.37 52.62C49.65 55.9 51.5 60.35 51.5 65L51.5 67.5C51.5 68.82 50.97 70.09 50.03 71.03C49.09 71.97 47.82 72.5 46.5 72.5C45.17 72.5 43.9 71.97 42.96 71.03C42.02 70.09 41.5 68.82 41.5 67.5L41.5 65C41.5 63.01 40.7 61.1 39.3 59.69C37.89 58.29 35.98 57.5 34 57.5Z" fill="#000000" fill-opacity="0.700000" fill-rule="evenodd"/>
		<path id="Vector" d="M63.75 38.75C63.75 42.72 65.33 46.54 68.14 49.35C70.95 52.16 74.77 53.75 78.75 53.75C82.72 53.75 86.54 52.16 89.35 49.35C92.16 46.54 93.75 42.72 93.75 38.75C93.75 34.77 92.16 30.95 89.35 28.14C86.54 25.33 82.72 23.75 78.75 23.75C74.77 23.75 70.95 25.33 68.14 28.14C65.33 30.95 63.75 34.77 63.75 38.75Z" fill="#000000" fill-opacity="0.700000" fill-rule="nonzero"/>
		<path id="Vector" d="M78.75 43.75C77.42 43.75 76.15 43.22 75.21 42.28C74.27 41.34 73.75 40.07 73.75 38.75C73.75 37.42 74.27 36.15 75.21 35.21C76.15 34.27 77.42 33.75 78.75 33.75C80.07 33.75 81.34 34.27 82.28 35.21C83.22 36.15 83.75 37.42 83.75 38.75C83.75 40.07 83.22 41.34 82.28 42.28C81.34 43.22 80.07 43.75 78.75 43.75ZM78.75 53.75C76.78 53.75 74.82 53.36 73 52.6C71.18 51.85 69.53 50.74 68.14 49.35C66.75 47.96 65.64 46.31 64.89 44.49C64.13 42.66 63.75 40.71 63.75 38.75C63.75 36.78 64.13 34.83 64.89 33C65.64 31.18 66.75 29.53 68.14 28.14C69.53 26.75 71.18 25.64 73 24.89C74.82 24.13 76.78 23.75 78.75 23.75C82.72 23.75 86.54 25.33 89.35 28.14C92.16 30.95 93.75 34.77 93.75 38.75C93.75 42.72 92.16 46.54 89.35 49.35C86.54 52.16 82.72 53.75 78.75 53.75Z" fill="#000000" fill-opacity="0.700000" fill-rule="evenodd"/>
		<path id="Vector" d="M78.5 57.5C80.48 57.5 82.39 58.29 83.8 59.69C85.2 61.1 86 63.01 86 65L86 72.5C86 73.82 86.52 75.09 87.46 76.03C88.4 76.97 89.67 77.5 91 77.5C92.32 77.5 93.59 76.97 94.53 76.03C95.47 75.09 96 73.82 96 72.5L96 65C96 60.35 94.15 55.9 90.87 52.62C87.59 49.34 83.14 47.5 78.5 47.5C73.85 47.5 69.4 49.34 66.12 52.62C62.84 55.9 61 60.35 61 65L61 67.5C61 68.82 61.52 70.09 62.46 71.03C63.4 71.97 64.67 72.5 66 72.5C67.32 72.5 68.59 71.97 69.53 71.03C70.47 70.09 71 68.82 71 67.5L71 65C71 63.01 71.79 61.1 73.19 59.69C74.6 58.29 76.51 57.5 78.5 57.5Z" fill="#000000" fill-opacity="0.700000" fill-rule="evenodd"/>
		<path id="Vector" d="M56.5 71.25C54.51 71.25 52.6 72.04 51.19 73.44C49.79 74.85 49 76.76 49 78.75L49 86.25C49 87.57 48.47 88.84 47.53 89.78C46.59 90.72 45.32 91.25 44 91.25C42.67 91.25 41.4 90.72 40.46 89.78C39.52 88.84 39 87.57 39 86.25L39 78.75C39 74.1 40.84 69.65 44.12 66.37C47.4 63.09 51.85 61.25 56.5 61.25C61.14 61.25 65.59 63.09 68.87 66.37C72.15 69.65 74 74.1 74 78.75L74 86.25C74 87.57 73.47 88.84 72.53 89.78C71.59 90.72 70.32 91.25 69 91.25C67.67 91.25 66.4 90.72 65.46 89.78C64.52 88.84 64 87.57 64 86.25L64 78.75C64 76.76 63.2 74.85 61.8 73.44C60.39 72.04 58.48 71.25 56.5 71.25Z" fill="#000000" fill-opacity="0.700000" fill-rule="evenodd"/>
		<path id="Vector" d="M71.25 52.5C71.25 56.47 69.66 60.29 66.85 63.1C64.04 65.91 60.22 67.5 56.25 67.5C52.27 67.5 48.45 65.91 45.64 63.1C42.83 60.29 41.25 56.47 41.25 52.5C41.25 48.52 42.83 44.7 45.64 41.89C48.45 39.08 52.27 37.5 56.25 37.5C60.22 37.5 64.04 39.08 66.85 41.89C69.66 44.7 71.25 48.52 71.25 52.5Z" fill="#000000" fill-opacity="0.700000" fill-rule="nonzero"/>
		<path id="Vector" d="M56.25 57.5C57.57 57.5 58.84 56.97 59.78 56.03C60.72 55.09 61.25 53.82 61.25 52.5C61.25 51.17 60.72 49.9 59.78 48.96C58.84 48.02 57.57 47.5 56.25 47.5C54.92 47.5 53.65 48.02 52.71 48.96C51.77 49.9 51.25 51.17 51.25 52.5C51.25 53.82 51.77 55.09 52.71 56.03C53.65 56.97 54.92 57.5 56.25 57.5ZM56.25 67.5C60.22 67.5 64.04 65.91 66.85 63.1C69.66 60.29 71.25 56.47 71.25 52.5C71.25 48.52 69.66 44.7 66.85 41.89C64.04 39.08 60.22 37.5 56.25 37.5C52.27 37.5 48.45 39.08 45.64 41.89C42.83 44.7 41.25 48.52 41.25 52.5C41.25 56.47 42.83 60.29 45.64 63.1C48.45 65.91 52.27 67.5 56.25 67.5Z" fill="#000000" fill-opacity="0.700000" fill-rule="evenodd"/>
		<path id="Vector" d="M21.25 57.5L46.25 57.5L46.25 77.5L21.25 77.5L21.25 57.5ZM66.25 57.5L91.25 57.5L91.25 77.5L66.25 77.5L66.25 57.5Z" fill="#000000" fill-opacity="0.700000" fill-rule="nonzero"/>
		<path id="Vector" d="M46.25 67.5L66.25 67.5L68.75 91.25L43.75 91.25L46.25 67.5Z" fill="#000000" fill-opacity="0.700000" fill-rule="nonzero"/>
	</g>
	<path id="Vector" d="M25 45C27.65 45 30.19 43.94 32.07 42.07C33.94 40.19 35 37.65 35 35C35 32.34 33.94 29.8 32.07 27.92C30.19 26.05 27.65 25 25 25C22.34 25 19.8 26.05 17.92 27.92C16.05 29.8 15 32.34 15 35C15 37.65 16.05 40.19 17.92 42.07C19.8 43.94 22.34 45 25 45ZM25 50C26.96 50 28.92 49.61 30.74 48.85C32.56 48.1 34.21 46.99 35.6 45.6C36.99 44.21 38.1 42.56 38.85 40.74C39.61 38.91 40 36.96 40 35C40 33.03 39.61 31.08 38.85 29.25C38.1 27.43 36.99 25.78 35.6 24.39C34.21 23 32.56 21.89 30.74 21.14C28.92 20.38 26.96 20 25 20C21.02 20 17.2 21.58 14.39 24.39C11.58 27.2 10 31.02 10 35C10 38.97 11.58 42.79 14.39 45.6C17.2 48.41 21.02 50 25 50Z" fill="#000000" fill-opacity="0.700000" fill-rule="evenodd"/>
	<path id="Vector" d="M19.27 44.47C19.5 44.71 19.68 44.98 19.81 45.29C19.93 45.59 20 45.92 20 46.25C20 46.57 19.93 46.9 19.81 47.2C19.68 47.51 19.5 47.78 19.27 48.01L17.58 49.7C14.32 52.95 12.5 57.36 12.5 61.96L12.5 71.25C12.5 71.91 12.23 72.54 11.76 73.01C11.29 73.48 10.66 73.75 10 73.75C9.33 73.75 8.7 73.48 8.23 73.01C7.76 72.54 7.5 71.91 7.5 71.25L7.5 61.96C7.5 56.04 9.85 50.36 14.04 46.16L15.73 44.47C15.96 44.24 16.23 44.06 16.54 43.93C16.84 43.8 17.17 43.74 17.5 43.74C17.82 43.74 18.15 43.8 18.45 43.93C18.76 44.06 19.03 44.24 19.27 44.47ZM78.23 42.97C77.99 43.21 77.81 43.48 77.68 43.79C77.56 44.09 77.49 44.42 77.49 44.75C77.49 45.07 77.56 45.4 77.68 45.7C77.81 46.01 77.99 46.28 78.23 46.51L79.92 48.2C83.17 51.45 84.99 55.86 85 60.46L85 71.25C85 71.91 85.26 72.54 85.73 73.01C86.2 73.48 86.83 73.75 87.5 73.75C88.16 73.75 88.79 73.48 89.26 73.01C89.73 72.54 90 71.91 90 71.25L90 60.46C89.99 54.54 87.64 48.86 83.45 44.66L81.76 42.97C81.53 42.74 81.26 42.56 80.95 42.43C80.65 42.3 80.32 42.24 80 42.24C79.67 42.24 79.34 42.3 79.04 42.43C78.73 42.56 78.46 42.74 78.23 42.97Z" fill="#000000" fill-opacity="0.700000" fill-rule="evenodd"/>
	<path id="Vector" d="M70 45C67.34 45 64.8 43.94 62.92 42.07C61.05 40.19 60 37.65 60 35C60 32.34 61.05 29.8 62.92 27.92C64.8 26.05 67.34 25 70 25C72.65 25 75.19 26.05 77.07 27.92C78.94 29.8 80 32.34 80 35C80 37.65 78.94 40.19 77.07 42.07C75.19 43.94 72.65 45 70 45ZM70 50C68.03 50 66.07 49.61 64.25 48.85C62.43 48.1 60.78 46.99 59.39 45.6C58 44.21 56.89 42.56 56.14 40.74C55.38 38.91 55 36.96 55 35C55 33.03 55.38 31.08 56.14 29.25C56.89 27.43 58 25.78 59.39 24.39C60.78 23 62.43 21.89 64.25 21.14C66.07 20.38 68.03 20 70 20C73.97 20 77.79 21.58 80.6 24.39C83.41 27.2 85 31.02 85 35C85 38.97 83.41 42.79 80.6 45.6C77.79 48.41 73.97 50 70 50ZM47.5 66.25C44.18 66.25 41 67.56 38.66 69.91C36.31 72.25 35 75.43 35 78.75L35 85.25C35 85.91 34.73 86.54 34.26 87.01C33.79 87.48 33.16 87.75 32.5 87.75C31.83 87.75 31.2 87.48 30.73 87.01C30.26 86.54 30 85.91 30 85.25L30 78.75C30 74.1 31.84 69.65 35.12 66.37C38.4 63.09 42.85 61.25 47.5 61.25C52.14 61.25 56.59 63.09 59.87 66.37C63.15 69.65 65 74.1 65 78.75L65 85.25C65 85.91 64.73 86.54 64.26 87.01C63.79 87.48 63.16 87.75 62.5 87.75C61.83 87.75 61.2 87.48 60.73 87.01C60.26 86.54 60 85.91 60 85.25L60 78.75C60 77.1 59.67 75.48 59.04 73.96C58.42 72.45 57.49 71.07 56.33 69.91C55.17 68.75 53.8 67.83 52.28 67.2C50.76 66.57 49.14 66.25 47.5 66.25Z" fill="#000000" fill-opacity="0.700000" fill-rule="evenodd"/>
	<path id="Vector" d="M47.5 58.75C50.15 58.75 52.69 57.69 54.57 55.82C56.44 53.94 57.5 51.4 57.5 48.75C57.5 46.09 56.44 43.55 54.57 41.67C52.69 39.8 50.15 38.75 47.5 38.75C44.84 38.75 42.3 39.8 40.42 41.67C38.55 43.55 37.5 46.09 37.5 48.75C37.5 51.4 38.55 53.94 40.42 55.82C42.3 57.69 44.84 58.75 47.5 58.75ZM47.5 63.75C51.47 63.75 55.29 62.16 58.1 59.35C60.91 56.54 62.5 52.72 62.5 48.75C62.5 44.77 60.91 40.95 58.1 38.14C55.29 35.33 51.47 33.75 47.5 33.75C43.52 33.75 39.7 35.33 36.89 38.14C34.08 40.95 32.5 44.77 32.5 48.75C32.5 52.72 34.08 56.54 36.89 59.35C39.7 62.16 43.52 63.75 47.5 63.75Z" fill="#000000" fill-opacity="0.700000" fill-rule="evenodd"/>
</svg>
