<svg width="100.000000" height="100.000000" viewBox="0 0 100 100" fill="none" xmlns="http://www.w3.org/2000/svg" xmlns:xlink="http://www.w3.org/1999/xlink">
	<desc>
			Created with Pixso.
	</desc>
	<defs/>
	<rect id="ant-design:database-twotone" rx="0.000000" width="99.000000" height="99.000000" transform="translate(0.500000 0.500000)" fill="#FFFFFF" fill-opacity="0"/>
	<path id="Vector" d="M22.65 60.15L77.34 60.15L77.34 39.84L22.65 39.84L22.65 60.15ZM33.59 46.09C35.75 46.09 37.5 47.84 37.5 50C37.5 52.15 35.75 53.9 33.59 53.9C31.43 53.9 29.68 52.15 29.68 50C29.68 47.84 31.43 46.09 33.59 46.09ZM22.65 86.71L77.34 86.71L77.34 66.4L22.65 66.4L22.65 86.71ZM33.59 72.65C35.75 72.65 37.5 74.4 37.5 76.56C37.5 78.72 35.75 80.46 33.59 80.46C31.43 80.46 29.68 78.72 29.68 76.56C29.68 74.4 31.43 72.65 33.59 72.65ZM22.65 33.59L77.34 33.59L77.34 13.28L22.65 13.28L22.65 33.59ZM33.59 19.53C35.75 19.53 37.5 21.27 37.5 23.43C37.5 25.59 35.75 27.34 33.59 27.34C31.43 27.34 29.68 25.59 29.68 23.43C29.68 21.27 31.43 19.53 33.59 19.53Z" fill="#000000" fill-opacity="0.150000" fill-rule="nonzero"/>
	<path id="Vector" d="M29.68 50C29.68 51.03 30.09 52.02 30.83 52.76C31.56 53.49 32.55 53.9 33.59 53.9C34.62 53.9 35.62 53.49 36.35 52.76C37.08 52.02 37.5 51.03 37.5 50C37.5 48.96 37.08 47.97 36.35 47.23C35.62 46.5 34.62 46.09 33.59 46.09C32.55 46.09 31.56 46.5 30.83 47.23C30.09 47.97 29.68 48.96 29.68 50ZM29.68 76.56C29.68 77.59 30.09 78.59 30.83 79.32C31.56 80.05 32.55 80.46 33.59 80.46C34.62 80.46 35.62 80.05 36.35 79.32C37.08 78.59 37.5 77.59 37.5 76.56C37.5 75.52 37.08 74.53 36.35 73.8C35.62 73.06 34.62 72.65 33.59 72.65C32.55 72.65 31.56 73.06 30.83 73.8C30.09 74.53 29.68 75.52 29.68 76.56ZM29.68 23.43C29.68 24.47 30.09 25.46 30.83 26.19C31.56 26.93 32.55 27.34 33.59 27.34C34.62 27.34 35.62 26.93 36.35 26.19C37.08 25.46 37.5 24.47 37.5 23.43C37.5 22.4 37.08 21.4 36.35 20.67C35.62 19.94 34.62 19.53 33.59 19.53C32.55 19.53 31.56 19.94 30.83 20.67C30.09 21.4 29.68 22.4 29.68 23.43Z" fill="#000000" fill-opacity="0.700000" fill-rule="nonzero"/>
	<path id="Vector" d="M81.25 6.25L18.75 6.25C17.02 6.25 15.62 7.64 15.62 9.37L15.62 90.62C15.62 92.35 17.02 93.75 18.75 93.75L81.25 93.75C82.97 93.75 84.37 92.35 84.37 90.62L84.37 9.37C84.37 7.64 82.97 6.25 81.25 6.25ZM77.34 86.71L22.65 86.71L22.65 66.4L77.34 66.4L77.34 86.71ZM77.34 60.15L22.65 60.15L22.65 39.84L77.34 39.84L77.34 60.15ZM77.34 33.59L22.65 33.59L22.65 13.28L77.34 13.28L77.34 33.59Z" fill="#000000" fill-opacity="0.700000" fill-rule="nonzero"/>
</svg>
