<svg width="100.000000" height="100.000000" viewBox="0 0 100 100" fill="none" xmlns="http://www.w3.org/2000/svg" xmlns:xlink="http://www.w3.org/1999/xlink">
	<desc>
			Created with Pixso.
	</desc>
	<defs/>
	<rect id="SAFE" rx="0.000000" width="99.000000" height="99.000000" transform="translate(0.500000 0.500000)" fill="#FFFFFF" fill-opacity="0"/>
	<g opacity="0.300000">
		<path id="Vector" d="M29.16 70.83L70.83 70.83L70.83 29.16L29.16 29.16L29.16 70.83ZM37.49 37.5L62.49 37.5L62.49 62.5L37.49 62.5L37.49 37.5Z" fill="#000000" fill-opacity="0.700000" fill-rule="nonzero"/>
	</g>
	<path id="Vector" d="M87.5 45.83L87.5 37.5L79.16 37.5L79.16 29.16C79.16 24.58 75.41 20.83 70.83 20.83L62.5 20.83L62.5 12.5L54.16 12.5L54.16 20.83L45.83 20.83L45.83 12.5L37.5 12.5L37.5 20.83L29.16 20.83C24.58 20.83 20.83 24.58 20.83 29.16L20.83 37.5L12.5 37.5L12.5 45.83L20.83 45.83L20.83 54.16L12.5 54.16L12.5 62.5L20.83 62.5L20.83 70.83C20.83 75.41 24.58 79.16 29.16 79.16L37.5 79.16L37.5 87.5L45.83 87.5L45.83 79.16L54.16 79.16L54.16 87.5L62.5 87.5L62.5 79.16L70.83 79.16C75.41 79.16 79.16 75.41 79.16 70.83L79.16 62.5L87.5 62.5L87.5 54.16L79.16 54.16L79.16 45.83L87.5 45.83ZM70.83 70.83L29.16 70.83L29.16 29.16L70.83 29.16L70.83 70.83ZM62.5 37.5L37.5 37.5L37.5 62.5L62.5 62.5L62.5 37.5ZM54.16 54.16L45.83 54.16L45.83 45.83L54.16 45.83L54.16 54.16Z" fill="#000000" fill-opacity="0.700000" fill-rule="nonzero"/>
</svg>
