<svg width="100.000000" height="100.000000" viewBox="0 0 100 100" fill="none" xmlns="http://www.w3.org/2000/svg" xmlns:xlink="http://www.w3.org/1999/xlink">
	<desc>
			Created with Pixso.
	</desc>
	<defs/>
	<rect id="ph:disc-duotone" rx="0.000000" width="99.000000" height="99.000000" transform="translate(0.500000 0.500000)" fill="#FFFFFF" fill-opacity="0"/>
	<g opacity="0.200000">
		<path id="Vector" d="M87.5 50C87.5 58.67 84.49 67.08 78.98 73.79C73.48 80.49 65.82 85.08 57.31 86.78C48.8 88.47 39.97 87.16 32.32 83.07C24.67 78.98 18.67 72.36 15.35 64.35C12.03 56.33 11.59 47.41 14.11 39.11C16.63 30.81 21.95 23.64 29.16 18.82C36.37 14 45.04 11.83 53.67 12.68C62.3 13.53 70.38 17.34 76.51 23.48L58.83 41.16C56.79 39.11 54.1 37.84 51.22 37.55C48.34 37.27 45.46 37.99 43.05 39.6C40.65 41.21 38.87 43.6 38.03 46.36C37.19 49.13 37.34 52.1 38.45 54.78C39.55 57.45 41.55 59.65 44.1 61.02C46.65 62.38 49.6 62.82 52.43 62.25C55.27 61.69 57.82 60.16 59.66 57.92C61.49 55.69 62.49 52.89 62.5 50L87.5 50Z" fill="#000000" fill-opacity="0.700000" fill-rule="nonzero"/>
	</g>
	<path id="Vector" d="M50.37 9.37C42.26 9.37 34.33 11.77 27.59 16.28C20.85 20.79 15.59 27.19 12.49 34.68C9.39 42.17 8.58 50.42 10.16 58.37C11.74 66.32 15.64 73.63 21.38 79.36C27.11 85.1 34.42 89 42.37 90.58C50.32 92.16 58.57 91.35 66.06 88.25C73.55 85.15 79.96 79.89 84.46 73.15C88.97 66.41 91.37 58.48 91.37 50.37C91.36 39.5 87.04 29.08 79.35 21.39C71.66 13.71 61.24 9.38 50.37 9.37ZM65.82 47.22C65.42 45.25 64.64 43.37 63.52 41.7L77.02 28.2C81.52 33.59 84.27 40.23 84.9 47.23L65.82 47.22ZM59.83 50.37C59.83 52.24 59.28 54.07 58.24 55.63C57.2 57.18 55.72 58.4 53.99 59.11C52.26 59.83 50.36 60.01 48.52 59.65C46.69 59.29 45 58.38 43.68 57.06C42.36 55.74 41.46 54.05 41.09 52.22C40.73 50.38 40.91 48.48 41.63 46.75C42.34 45.02 43.56 43.54 45.11 42.5C46.67 41.46 48.5 40.91 50.37 40.91C52.88 40.91 55.29 41.91 57.06 43.68C58.83 45.45 59.83 47.86 59.83 50.37ZM50.37 85.06C44.8 85.07 39.3 83.73 34.36 81.16C29.41 78.59 25.16 74.87 21.95 70.31C18.75 65.75 16.7 60.48 15.96 54.96C15.22 49.43 15.83 43.81 17.72 38.57C19.62 33.33 22.75 28.62 26.85 24.85C30.95 21.07 35.9 18.34 41.28 16.88C46.66 15.43 52.31 15.29 57.75 16.48C63.2 17.67 68.28 20.15 72.56 23.72L59.04 37.22C56.22 35.36 52.88 34.46 49.51 34.64C46.14 34.83 42.92 36.09 40.32 38.24C37.72 40.39 35.87 43.32 35.06 46.6C34.25 49.87 34.51 53.33 35.81 56.44C37.11 59.56 39.37 62.18 42.26 63.91C45.16 65.65 48.54 66.41 51.9 66.08C55.26 65.76 58.42 64.36 60.93 62.1C63.44 59.84 65.15 56.83 65.82 53.52L84.92 53.52C84.12 62.14 80.14 70.15 73.75 75.98C67.36 81.81 59.02 85.05 50.37 85.06Z" fill="#000000" fill-opacity="0.700000" fill-rule="nonzero"/>
</svg>
