<svg width="100.000000" height="100.000000" viewBox="0 0 100 100" fill="none" xmlns="http://www.w3.org/2000/svg" xmlns:xlink="http://www.w3.org/1999/xlink">
	<desc>
			Created with Pixso.
	</desc>
	<defs/>
	<rect id="pepicons-print:internet" rx="0.000000" width="99.000000" height="99.000000" transform="translate(0.500000 0.500000)" fill="#FFFFFF" fill-opacity="0"/>
	<g opacity="0.200000">
		<path id="Vector" d="M57.5 100C46.22 100 35.41 95.52 27.44 87.55C19.47 79.58 15 68.77 15 57.5C15 46.22 19.47 35.41 27.44 27.44C35.41 19.47 46.22 15 57.5 15C68.77 15 79.58 19.47 87.55 27.44C95.52 35.41 100 46.22 100 57.5C100 68.77 95.52 79.58 87.55 87.55C79.58 95.52 68.77 100 57.5 100Z" fill="#000000" fill-opacity="0.700000" fill-rule="nonzero"/>
	</g>
	<path id="Vector" d="M7.5 50C7.5 55.58 8.59 61.1 10.73 66.26C12.87 71.41 16 76.1 19.94 80.05C23.89 83.99 28.57 87.12 33.73 89.26C38.89 91.4 44.41 92.5 50 92.5C55.58 92.5 61.1 91.4 66.26 89.26C71.42 87.12 76.1 83.99 80.05 80.05C83.99 76.1 87.12 71.41 89.26 66.26C91.4 61.1 92.5 55.58 92.5 50C92.5 38.72 88.02 27.91 80.05 19.94C72.08 11.97 61.27 7.5 50 7.5C38.72 7.5 27.91 11.97 19.94 19.94C11.97 27.91 7.5 38.72 7.5 50ZM87.5 50C87.5 59.94 83.54 69.48 76.51 76.51C69.48 83.54 59.94 87.5 50 87.5C40.05 87.5 30.51 83.54 23.48 76.51C16.45 69.48 12.5 59.94 12.5 50C12.5 40.05 16.45 30.51 23.48 23.48C30.51 16.45 40.05 12.5 50 12.5C59.94 12.5 69.48 16.45 76.51 23.48C83.54 30.51 87.5 40.05 87.5 50Z" fill="#000000" fill-opacity="0.700000" fill-rule="evenodd"/>
	<path id="Vector" d="M32.5 50C32.5 71.98 39.71 90 50 90C60.29 90 67.5 71.98 67.5 50C67.5 28.01 60.29 10 50 10C39.71 10 32.5 28.01 32.5 50ZM62.5 50C62.5 69.44 56.27 85 50 85C43.72 85 37.5 69.44 37.5 50C37.5 30.55 43.72 15 50 15C56.27 15 62.5 30.55 62.5 50Z" fill="#000000" fill-opacity="0.700000" fill-rule="evenodd"/>
	<path id="Vector" d="M18.67 26.55L22.02 22.84C22.55 23.33 23.13 23.79 23.74 24.25C30.33 29.19 40.73 32.2 52.06 32.2C61.73 32.2 70.75 30.01 77.33 26.25C78.85 25.39 80.29 24.39 81.62 23.26L84.87 27.06C83.38 28.34 81.69 29.51 79.82 30.58C72.43 34.81 62.56 37.2 52.06 37.2C39.71 37.2 28.25 33.88 20.74 28.25C20.02 27.71 19.33 27.15 18.67 26.55ZM18.67 73.5L22.02 77.19C22.55 76.71 23.13 76.25 23.74 75.79C30.33 70.85 40.73 67.84 52.06 67.84C61.73 67.84 70.75 70.02 77.33 73.79C78.94 74.72 80.37 75.71 81.62 76.77L84.87 72.97C83.3 71.65 81.61 70.47 79.82 69.46C72.43 65.23 62.56 62.84 52.06 62.84C39.71 62.84 28.25 66.16 20.74 71.79C20 72.34 19.31 72.91 18.67 73.5ZM10 52.5L10 47.5L90 47.5L90 52.5L10 52.5Z" fill="#000000" fill-opacity="0.700000" fill-rule="nonzero"/>
</svg>
