<svg width="100.000000" height="100.000000" viewBox="0 0 100 100" fill="none" xmlns="http://www.w3.org/2000/svg" xmlns:xlink="http://www.w3.org/1999/xlink">
	<desc>
			Created with Pixso.
	</desc>
	<defs/>
	<rect id="solar:passport-minimalistic-bold-duotone" rx="0.000000" width="99.000000" height="99.000000" transform="translate(0.500000 0.500000)" fill="#FFFFFF" fill-opacity="0"/>
	<path id="Vector" d="M50 44.79C47.51 44.79 45.12 45.77 43.37 47.53C41.61 49.29 40.62 51.68 40.62 54.16C40.62 56.65 41.61 59.03 43.37 60.79C45.12 62.55 47.51 63.54 50 63.54C52.48 63.54 54.87 62.55 56.62 60.79C58.38 59.03 59.37 56.65 59.37 54.16C59.37 51.68 58.38 49.29 56.62 47.53C54.87 45.77 52.48 44.79 50 44.79Z" fill="#000000" fill-opacity="0.700000" fill-rule="nonzero"/>
	<path id="Vector" d="M16.66 19.55L16.66 77.89C16.66 81.2 17.98 84.38 20.32 86.73C22.67 89.07 25.85 90.39 29.16 90.39L70.83 90.39C74.14 90.39 77.32 89.07 79.67 86.73C82.01 84.38 83.33 81.2 83.33 77.89L83.33 36.22C83.33 32.91 82.01 29.73 79.67 27.38C77.32 25.04 74.14 23.72 70.83 23.72L20.83 23.72C19.72 23.72 18.66 23.28 17.88 22.5C17.1 21.72 16.66 20.66 16.66 19.55ZM50 38.54C45.85 38.54 41.88 40.18 38.95 43.11C36.02 46.04 34.37 50.02 34.37 54.16C34.37 58.31 36.02 62.28 38.95 65.21C41.88 68.14 45.85 69.79 50 69.79C54.14 69.79 58.11 68.14 61.04 65.21C63.97 62.28 65.62 58.31 65.62 54.16C65.62 50.02 63.97 46.04 61.04 43.11C58.11 40.18 54.14 38.54 50 38.54Z" fill="#000000" fill-opacity="0.700000" fill-rule="evenodd"/>
	<g opacity="0.500000">
		<path id="Vector" d="M75 16.66L75 24.43C73.69 23.97 72.29 23.72 70.83 23.72L20.83 23.72C19.72 23.72 18.66 23.29 17.88 22.5C17.1 21.72 16.66 20.66 16.66 19.56L16.66 19.26C16.66 17.04 18.29 15.15 20.5 14.84L65.48 8.41C66.66 8.24 67.87 8.33 69.01 8.67C70.16 9 71.22 9.58 72.12 10.37C73.02 11.15 73.75 12.12 74.24 13.2C74.74 14.29 75 15.47 75 16.66Z" fill="#000000" fill-opacity="0.700000" fill-rule="nonzero"/>
	</g>
</svg>
