<svg width="24.000000" height="24.000000" viewBox="0 0 24 24" fill="none" xmlns="http://www.w3.org/2000/svg" xmlns:xlink="http://www.w3.org/1999/xlink">
	<desc>
			Created with Pixso.
	</desc>
	<defs/>
	<rect id="material-symbols-light:mail-outline" rx="0.000000" width="23.000000" height="23.000000" transform="translate(0.500000 0.500000)" fill="#FFFFFF" fill-opacity="0"/>
	<path id="Vector" d="M4.61 19C4.15 19 3.77 18.84 3.46 18.53C3.15 18.23 3 17.84 3 17.38L3 6.61C3 6.15 3.15 5.77 3.46 5.46C3.77 5.15 4.15 5 4.61 5L19.38 5C19.84 5 20.22 5.15 20.53 5.46C20.84 5.77 21 6.15 21 6.61L21 17.38C21 17.84 20.84 18.22 20.53 18.53C20.22 18.84 19.84 19 19.38 19L4.61 19ZM12 12.11L4 6.88L4 17.38C4 17.56 4.05 17.71 4.17 17.82C4.28 17.94 4.43 18 4.61 18L19.38 18C19.56 18 19.71 17.94 19.82 17.82C19.94 17.71 20 17.56 20 17.38L20 6.88L12 12.11ZM12 11L19.69 6L4.3 6L12 11ZM4 6.88L4 6L4 17.38C4 17.56 4.05 17.71 4.17 17.82C4.28 17.94 4.43 18 4.61 18L4 18L4 6.88Z" fill="#FF9134" fill-opacity="1.000000" fill-rule="nonzero"/>
</svg>
