<svg width="19.000000" height="19.000000" viewBox="0 0 19 19" fill="none" xmlns="http://www.w3.org/2000/svg" xmlns:xlink="http://www.w3.org/1999/xlink">
	<desc>
			Created with Pixso.
	</desc>
	<defs/>
	<path id="Vector" d="M17.5 19C17.89 19 18.27 18.84 18.56 18.56C18.84 18.27 19 17.89 19 17.5L19 14C19 13.6 18.84 13.22 18.56 12.93C18.27 12.65 17.89 12.5 17.5 12.5C16.33 12.5 15.17 12.32 14.08 11.95C13.81 11.86 13.53 11.85 13.26 11.92C13 11.98 12.75 12.12 12.56 12.32L11.11 13.75C8.63 12.4 6.58 10.35 5.23 7.87L6.66 6.44C7.07 6.04 7.22 5.46 7.03 4.91C6.67 3.82 6.5 2.66 6.5 1.5C6.5 1.1 6.34 0.72 6.06 0.43C5.77 0.15 5.39 0 5 0L1.5 0C1.1 0 0.72 0.15 0.43 0.43C0.15 0.72 0 1.1 0 1.5C0 11.15 7.84 19 17.5 19ZM1.5 1L5 1C5.13 1 5.25 1.05 5.35 1.14C5.44 1.24 5.5 1.36 5.5 1.5C5.5 2.78 5.69 4.03 6.08 5.21C6.14 5.36 6.13 5.55 5.97 5.71L4 7.67C5.65 10.91 8.07 13.33 11.31 15L13.25 13.03C13.4 12.88 13.58 12.84 13.76 12.9C14.97 13.29 16.22 13.5 17.5 13.5C17.63 13.5 17.75 13.55 17.85 13.64C17.94 13.74 18 13.86 18 14L18 17.5C18 17.63 17.94 17.75 17.85 17.85C17.75 17.94 17.63 18 17.5 18C8.4 18 1 10.59 1 1.5C1 1.36 1.05 1.24 1.14 1.14C1.24 1.05 1.36 1 1.5 1Z" fill="#FF9134" fill-opacity="1.000000" fill-rule="nonzero"/>
</svg>
